<svg width="22" height="20" viewBox="0 0 22 20" fill="none" xmlns="http://www.w3.org/2000/svg">
<path fill-rule="evenodd" clip-rule="evenodd" d="M5.2284 18.4153C5.1896 18.428 5.16374 18.4232 5.15081 18.4009C5.13787 18.3787 5.14434 18.3516 5.1702 18.3198C5.44181 17.9888 5.74251 17.6054 6.07232 17.1695C6.40213 16.7335 6.6511 16.3627 6.81923 16.0573C6.95504 15.8091 6.99707 15.5799 6.94534 15.37C6.8936 15.1599 6.71253 14.9817 6.40213 14.8353C5.38684 14.3707 4.52191 13.8218 3.80733 13.1885C3.09275 12.5553 2.54792 11.8568 2.17284 11.0931C1.79777 10.3294 1.61023 9.52427 1.61023 8.6778C1.61023 7.69769 1.85112 6.77963 2.33289 5.92362C2.81467 5.06762 3.48399 4.31344 4.34084 3.6611C5.19769 3.00875 6.19519 2.49801 7.33334 2.12887C8.4715 1.75974 9.69372 1.57518 11 1.57518C12.3063 1.57518 13.5285 1.75974 14.6667 2.12887C15.8049 2.49801 16.8024 3.00875 17.6592 3.6611C18.5161 4.31344 19.187 5.06762 19.672 5.92362C20.157 6.77963 20.3995 7.69769 20.3995 8.6778C20.3995 9.65155 20.157 10.568 19.672 11.4272C19.187 12.2864 18.5161 13.0406 17.6592 13.6897C16.8024 14.3389 15.8049 14.848 14.6667 15.2172C13.5285 15.5863 12.3063 15.7709 11 15.7709C10.903 15.7709 10.7801 15.7693 10.6314 15.7661C10.4827 15.7629 10.3113 15.7581 10.1173 15.7518C9.91681 15.7518 9.73091 15.7852 9.55954 15.852C9.38817 15.9189 9.21195 16.0223 9.03088 16.1623C8.6364 16.4423 8.19989 16.7335 7.72136 17.0358C7.24281 17.3381 6.78043 17.6133 6.33422 17.8616C5.88801 18.1097 5.51941 18.2943 5.2284 18.4153ZM6.74163 9.33651C6.58643 9.19013 6.50883 9.00238 6.50883 8.77326C6.50883 8.53142 6.58481 8.33572 6.73679 8.18615C6.88876 8.03659 7.09084 7.96181 7.34305 7.96181H10.1949V5.15513C10.1949 4.91328 10.2693 4.71599 10.418 4.56324C10.5668 4.4105 10.7575 4.33412 10.9904 4.33412C11.236 4.33412 11.4349 4.40891 11.5868 4.55847C11.7388 4.70803 11.8148 4.90692 11.8148 5.15513V7.96181H14.6764C14.9221 7.96181 15.121 8.03659 15.273 8.18615C15.425 8.33572 15.5009 8.53142 15.5009 8.77326C15.5009 9.00238 15.425 9.19013 15.273 9.33651C15.121 9.48289 14.9221 9.55608 14.6764 9.55608H11.8148V12.3723C11.8148 12.6141 11.7388 12.8098 11.5868 12.9594C11.4349 13.1089 11.236 13.1837 10.9904 13.1837C10.7575 13.1837 10.5668 13.1089 10.418 12.9594C10.2693 12.8098 10.1949 12.6141 10.1949 12.3723V9.55608H7.34305C7.09731 9.55608 6.89683 9.48289 6.74163 9.33651Z" fill="#537975" fill-opacity="0.5"/>
<path fill-rule="evenodd" clip-rule="evenodd" d="M5.88801 19.6182C5.20254 19.8727 4.64316 20 4.20988 20C3.87361 20 3.61817 19.922 3.44357 19.7661C3.26896 19.6102 3.17843 19.4161 3.17196 19.1837C3.16549 18.9515 3.24633 18.724 3.41447 18.5012C3.5632 18.3166 3.74104 18.0795 3.94798 17.7899C4.15492 17.5004 4.36185 17.1965 4.56879 16.8782C4.77573 16.56 4.95357 16.2609 5.1023 15.9809C4.08055 15.5163 3.18651 14.9117 2.42019 14.1671C1.65388 13.4224 1.05894 12.5823 0.635362 11.6468C0.211787 10.7112 0 9.72154 0 8.6778C0 7.47493 0.282922 6.34844 0.848767 5.29832C1.41461 4.2482 2.20032 3.32696 3.20591 2.5346C4.2115 1.74224 5.38037 1.12172 6.71253 0.673031C8.04469 0.224344 9.47385 0 11 0C12.5262 0 13.9553 0.224344 15.2875 0.673031C16.6196 1.12172 17.7885 1.74224 18.7941 2.5346C19.7997 3.32696 20.5854 4.2482 21.1512 5.29832C21.7171 6.34844 22 7.47493 22 8.6778C22 9.67703 21.8076 10.6206 21.4229 11.5084C21.0381 12.3962 20.4916 13.2029 19.7836 13.9283C19.0755 14.6539 18.2316 15.276 17.2518 15.7947C16.2721 16.3134 15.184 16.7064 13.9876 16.9738C12.7913 17.241 11.5174 17.3556 10.1658 17.3174C9.51267 17.782 8.80778 18.2179 8.05116 18.6253C7.29455 19.0326 6.5735 19.3635 5.88801 19.6182ZM5.15081 18.4009C5.16374 18.4232 5.1896 18.428 5.2284 18.4153C5.51941 18.2943 5.88801 18.1097 6.33422 17.8616C6.78043 17.6133 7.24281 17.3381 7.72136 17.0358C8.19989 16.7335 8.6364 16.4423 9.03088 16.1623C9.21195 16.0223 9.38817 15.9189 9.55954 15.852C9.73091 15.7852 9.91681 15.7518 10.1173 15.7518C10.3113 15.7581 10.4827 15.7629 10.6314 15.7661C10.7801 15.7693 10.903 15.7709 11 15.7709C12.3063 15.7709 13.5285 15.5863 14.6667 15.2172C15.8049 14.848 16.8024 14.3389 17.6592 13.6897C18.5161 13.0406 19.187 12.2864 19.672 11.4272C20.157 10.568 20.3995 9.65155 20.3995 8.6778C20.3995 7.69769 20.157 6.77963 19.672 5.92362C19.187 5.06762 18.5161 4.31344 17.6592 3.6611C16.8024 3.00875 15.8049 2.49801 14.6667 2.12887C13.5285 1.75974 12.3063 1.57518 11 1.57518C9.69372 1.57518 8.4715 1.75974 7.33334 2.12887C6.19519 2.49801 5.19769 3.00875 4.34084 3.6611C3.48399 4.31344 2.81467 5.06762 2.33289 5.92362C1.85112 6.77963 1.61023 7.69769 1.61023 8.6778C1.61023 9.52427 1.79777 10.3294 2.17284 11.0931C2.54792 11.8568 3.09275 12.5553 3.80733 13.1885C4.52191 13.8218 5.38684 14.3707 6.40213 14.8353C6.71253 14.9817 6.8936 15.1599 6.94534 15.37C6.99707 15.5799 6.95504 15.8091 6.81923 16.0573C6.6511 16.3627 6.40213 16.7335 6.07232 17.1695C5.74251 17.6054 5.44181 17.9888 5.1702 18.3198C5.14434 18.3516 5.13787 18.3787 5.15081 18.4009Z" fill="#537975" fill-opacity="0.5"/>
</svg>
