<svg width="50" height="50" viewBox="0 0 50 50" fill="none" xmlns="http://www.w3.org/2000/svg">
<path d="M24.9999 50C24.7931 50 24.5863 49.9507 24.3973 49.852C19.8884 47.4985 15.9145 44.7345 12.586 41.6371C10.158 39.3787 8.18437 37.2578 6.55256 35.1531C4.54415 32.5628 3.03817 29.9934 1.94863 27.2984C0.751555 24.3381 0.0801235 21.1344 0.00695185 18.0341C-0.0730103 14.644 0.537164 11.5197 1.82065 8.74784C3.16358 5.84791 5.37696 3.38119 8.05313 1.80209C10.8771 0.135666 14.0093 -0.398526 16.8731 0.297779C19.9443 1.04451 22.7765 3.13377 25.0003 6.2571C27.2235 3.13377 30.0553 1.04451 33.1265 0.297779C35.9898 -0.398456 39.1224 0.135666 41.9465 1.80209C44.6227 3.38112 46.8362 5.84777 48.1795 8.7477C49.4629 11.5195 50.0731 14.6438 49.993 18.0341C49.9199 21.1343 49.2485 24.3378 48.0516 27.2984C48.0515 27.2985 48.0516 27.2985 48.0516 27.2986C45.47 33.6824 40.7442 38.5393 37.4141 41.6372C34.086 44.7338 30.112 47.4977 25.6025 49.852C25.4135 49.9506 25.2066 50 24.9999 50ZM14.3624 2.65414C12.7049 2.65414 10.9872 3.144 9.37715 4.09395C7.15705 5.40392 5.31813 7.45621 4.19908 9.87273C2.03975 14.5361 2.10724 20.6751 4.37958 26.2944C6.193 30.7801 9.36578 35.0348 14.3645 39.6843C17.3726 42.4835 20.9481 45.0015 24.9998 47.1749C29.0525 45.0007 32.6278 42.4829 35.6355 39.6844C40.6338 35.0347 43.8068 30.7794 45.6206 26.2945C47.8927 20.6744 47.9602 14.5354 45.8011 9.87266C44.6818 7.45622 42.8427 5.40385 40.6226 4.09388C38.3864 2.77452 35.9425 2.34265 33.7409 2.87803C30.8245 3.58701 28.1243 5.89112 26.1373 9.36571C25.9026 9.77602 25.4694 10.0286 25.0005 10.0287C24.5317 10.0288 24.0984 9.77608 23.8637 9.36592C21.876 5.89119 19.1751 3.58708 16.2589 2.87803C15.6425 2.72824 15.0069 2.65414 14.3624 2.65414Z" fill="#547A77"/>
</svg>
