<svg width="20" height="18" viewBox="0 0 20 18" fill="none" xmlns="http://www.w3.org/2000/svg">
<path d="M3.15103 18H16.8589C17.9094 18 18.6955 17.7474 19.2173 17.2423C19.7391 16.7372 20 15.9794 20 14.9691V3.03097C20 2.02065 19.7391 1.2629 19.2173 0.757742C18.6955 0.252581 17.9094 0 16.8589 0H3.15103C2.10068 0 1.31293 0.252581 0.787757 0.757742C0.262586 1.2629 0 2.02065 0 3.03097V14.9691C0 15.9794 0.262586 16.7372 0.787757 17.2423C1.31293 17.7474 2.10068 18 3.15103 18ZM3.0005 16.4259C2.55895 16.4259 2.21776 16.3102 1.97692 16.0788C1.73608 15.8474 1.61566 15.5068 1.61566 15.0571V5.83706C1.61566 5.3873 1.73608 5.04673 1.97692 4.81533C2.21776 4.58393 2.55895 4.46823 3.0005 4.46823H16.9895C17.4377 4.46823 17.7822 4.58393 18.0231 4.81533C18.2639 5.04673 18.3843 5.3873 18.3843 5.83706V15.0571C18.3843 15.5068 18.2639 15.8474 18.0231 16.0788C17.7822 16.3102 17.4377 16.4259 16.9895 16.4259H3.0005ZM8.04816 7.98807H8.64023C8.81418 7.98807 8.93627 7.95548 9.00652 7.8903C9.07677 7.82511 9.11189 7.70779 9.11189 7.53832V6.96146C9.11189 6.79198 9.07677 6.67628 9.00652 6.61436C8.93627 6.55243 8.81418 6.52147 8.64023 6.52147H8.04816C7.87422 6.52147 7.75213 6.55243 7.68189 6.61436C7.61164 6.67628 7.57652 6.79198 7.57652 6.96146V7.53832C7.57652 7.70779 7.61164 7.82511 7.68189 7.8903C7.75213 7.95548 7.87422 7.98807 8.04816 7.98807ZM11.3798 7.98807H11.9719C12.1526 7.98807 12.2763 7.95548 12.3432 7.8903C12.4101 7.82511 12.4436 7.70779 12.4436 7.53832V6.96146C12.4436 6.79198 12.4101 6.67628 12.3432 6.61436C12.2763 6.55243 12.1526 6.52147 11.9719 6.52147H11.3798C11.2059 6.52147 11.0855 6.55243 11.0186 6.61436C10.9517 6.67628 10.9182 6.79198 10.9182 6.96146V7.53832C10.9182 7.70779 10.9517 7.82511 11.0186 7.8903C11.0855 7.95548 11.2059 7.98807 11.3798 7.98807ZM14.7215 7.98807H15.3036C15.4842 7.98807 15.6079 7.95548 15.6748 7.8903C15.7418 7.82511 15.7752 7.70779 15.7752 7.53832V6.96146C15.7752 6.79198 15.7418 6.67628 15.6748 6.61436C15.6079 6.55243 15.4842 6.52147 15.3036 6.52147H14.7215C14.5409 6.52147 14.4171 6.55243 14.3502 6.61436C14.2833 6.67628 14.2499 6.79198 14.2499 6.96146V7.53832C14.2499 7.70779 14.2833 7.82511 14.3502 7.8903C14.4171 7.95548 14.5409 7.98807 14.7215 7.98807ZM4.7165 11.1852H5.30858C5.48252 11.1852 5.60294 11.1527 5.66984 11.0875C5.73674 11.0223 5.77019 10.905 5.77019 10.7355V10.1684C5.77019 9.99243 5.73674 9.87347 5.66984 9.81155C5.60294 9.74962 5.48252 9.71865 5.30858 9.71865H4.7165C4.53587 9.71865 4.41211 9.74962 4.34521 9.81155C4.27831 9.87347 4.24486 9.99243 4.24486 10.1684V10.7355C4.24486 10.905 4.27831 11.0223 4.34521 11.0875C4.41211 11.1527 4.53587 11.1852 4.7165 11.1852ZM8.04816 11.1852H8.64023C8.81418 11.1852 8.93627 11.1527 9.00652 11.0875C9.07677 11.0223 9.11189 10.905 9.11189 10.7355V10.1684C9.11189 9.99243 9.07677 9.87347 9.00652 9.81155C8.93627 9.74962 8.81418 9.71865 8.64023 9.71865H8.04816C7.87422 9.71865 7.75213 9.74962 7.68189 9.81155C7.61164 9.87347 7.57652 9.99243 7.57652 10.1684V10.7355C7.57652 10.905 7.61164 11.0223 7.68189 11.0875C7.75213 11.1527 7.87422 11.1852 8.04816 11.1852ZM11.3798 11.1852H11.9719C12.1526 11.1852 12.2763 11.1527 12.3432 11.0875C12.4101 11.0223 12.4436 10.905 12.4436 10.7355V10.1684C12.4436 9.99243 12.4101 9.87347 12.3432 9.81155C12.2763 9.74962 12.1526 9.71865 11.9719 9.71865H11.3798C11.2059 9.71865 11.0855 9.74962 11.0186 9.81155C10.9517 9.87347 10.9182 9.99243 10.9182 10.1684V10.7355C10.9182 10.905 10.9517 11.0223 11.0186 11.0875C11.0855 11.1527 11.2059 11.1852 11.3798 11.1852ZM14.7215 11.1852H15.3036C15.4842 11.1852 15.6079 11.1527 15.6748 11.0875C15.7418 11.0223 15.7752 10.905 15.7752 10.7355V10.1684C15.7752 9.99243 15.7418 9.87347 15.6748 9.81155C15.6079 9.74962 15.4842 9.71865 15.3036 9.71865H14.7215C14.5409 9.71865 14.4171 9.74962 14.3502 9.81155C14.2833 9.87347 14.2499 9.99243 14.2499 10.1684V10.7355C14.2499 10.905 14.2833 11.0223 14.3502 11.0875C14.4171 11.1527 14.5409 11.1852 14.7215 11.1852ZM4.7165 14.3825H5.30858C5.48252 14.3825 5.60294 14.3515 5.66984 14.2896C5.73674 14.2276 5.77019 14.1086 5.77019 13.9326V13.3656C5.77019 13.1896 5.73674 13.0707 5.66984 13.0087C5.60294 12.9468 5.48252 12.9158 5.30858 12.9158H4.7165C4.53587 12.9158 4.41211 12.9468 4.34521 13.0087C4.27831 13.0707 4.24486 13.1896 4.24486 13.3656V13.9326C4.24486 14.1086 4.27831 14.2276 4.34521 14.2896C4.41211 14.3515 4.53587 14.3825 4.7165 14.3825ZM8.04816 14.3825H8.64023C8.81418 14.3825 8.93627 14.3515 9.00652 14.2896C9.07677 14.2276 9.11189 14.1086 9.11189 13.9326V13.3656C9.11189 13.1896 9.07677 13.0707 9.00652 13.0087C8.93627 12.9468 8.81418 12.9158 8.64023 12.9158H8.04816C7.87422 12.9158 7.75213 12.9468 7.68189 13.0087C7.61164 13.0707 7.57652 13.1896 7.57652 13.3656V13.9326C7.57652 14.1086 7.61164 14.2276 7.68189 14.2896C7.75213 14.3515 7.87422 14.3825 8.04816 14.3825ZM11.3798 14.3825H11.9719C12.1526 14.3825 12.2763 14.3515 12.3432 14.2896C12.4101 14.2276 12.4436 14.1086 12.4436 13.9326V13.3656C12.4436 13.1896 12.4101 13.0707 12.3432 13.0087C12.2763 12.9468 12.1526 12.9158 11.9719 12.9158H11.3798C11.2059 12.9158 11.0855 12.9468 11.0186 13.0087C10.9517 13.0707 10.9182 13.1896 10.9182 13.3656V13.9326C10.9182 14.1086 10.9517 14.2276 11.0186 14.2896C11.0855 14.3515 11.2059 14.3825 11.3798 14.3825Z" fill="#2F6F5E" fill-opacity="0.5"/>
</svg>
