<svg width="20" height="20" viewBox="0 0 20 20" fill="none" xmlns="http://www.w3.org/2000/svg">
<path d="M9.1196 20H10.8803C11.1292 20 11.3397 19.9314 11.5119 19.7942C11.6842 19.657 11.7958 19.4641 11.8468 19.2153L12.3445 17.11C12.5295 17.0462 12.7113 16.9793 12.8899 16.9091C13.0685 16.8389 13.2376 16.7655 13.3971 16.6889L15.2439 17.8181C15.4481 17.9457 15.6602 18 15.8804 17.9808C16.1005 17.9617 16.2966 17.866 16.4688 17.6937L17.7033 16.4688C17.8756 16.2966 17.9729 16.0957 17.9952 15.866C18.0175 15.6363 17.9585 15.4194 17.8181 15.2152L16.6889 13.3875C16.7719 13.2217 16.8468 13.0526 16.9138 12.8803C16.9808 12.7081 17.043 12.5359 17.1005 12.3636L19.2248 11.8564C19.4672 11.8054 19.657 11.6938 19.7942 11.5215C19.9314 11.3492 20 11.1387 20 10.8899V9.15787C20 8.91545 19.9314 8.70812 19.7942 8.53587C19.657 8.36362 19.4672 8.25198 19.2248 8.20094L17.1196 7.69376C17.0558 7.496 16.9872 7.31099 16.9138 7.13874C16.8404 6.96649 16.7719 6.80381 16.7081 6.6507L17.8373 4.79425C17.9712 4.5901 18.0303 4.37798 18.0143 4.15788C17.9984 3.93779 17.9011 3.74162 17.7224 3.56937L16.4688 2.33492C16.2902 2.17543 16.0988 2.08134 15.8947 2.05263C15.6906 2.02392 15.4832 2.07017 15.2727 2.19138L13.3971 3.34928C13.244 3.26634 13.0797 3.18979 12.9042 3.11961C12.7288 3.04943 12.5423 2.98245 12.3445 2.91866L11.8468 0.784687C11.7958 0.542264 11.6842 0.350877 11.5119 0.210526C11.3397 0.0701754 11.1292 0 10.8803 0H9.1196C8.87079 0 8.66027 0.0701754 8.48802 0.210526C8.31577 0.350877 8.20094 0.542264 8.14353 0.784687L7.64591 2.89951C7.46091 2.96331 7.2775 3.03189 7.09568 3.10526C6.91386 3.17862 6.74321 3.25677 6.58372 3.3397L4.72726 2.19138C4.51674 2.07017 4.3078 2.02232 4.10047 2.04784C3.89314 2.07336 3.70015 2.16906 3.52152 2.33492L2.27751 3.56937C2.09888 3.74162 1.99999 3.93779 1.98085 4.15788C1.96172 4.37798 2.02233 4.5901 2.16267 4.79425L3.28229 6.6507C3.21849 6.80381 3.14991 6.96649 3.07655 7.13874C3.00318 7.31099 2.93779 7.496 2.88037 7.69376L0.775118 8.20094C0.526315 8.25198 0.334927 8.36362 0.200956 8.53587C0.0669855 8.70812 0 8.91545 0 9.15787V10.8899C0 11.1387 0.0669855 11.3492 0.200956 11.5215C0.334927 11.6938 0.526315 11.8054 0.775118 11.8564L2.89951 12.3636C2.95055 12.5359 3.01116 12.7081 3.08133 12.8803C3.15151 13.0526 3.22487 13.2217 3.30143 13.3875L2.18181 15.2152C2.04146 15.4194 1.98245 15.6363 2.00478 15.866C2.02711 16.0957 2.1244 16.2966 2.29665 16.4688L3.52152 17.6937C3.69377 17.866 3.88994 17.9617 4.11004 17.9808C4.33014 18 4.54545 17.9457 4.75597 17.8181L6.59329 16.6889C6.75278 16.7655 6.92184 16.8389 7.10046 16.9091C7.27909 16.9793 7.46091 17.0462 7.64591 17.11L8.14353 19.2153C8.20094 19.4641 8.31577 19.657 8.48802 19.7942C8.66027 19.9314 8.87079 20 9.1196 20ZM10 13.3779C9.38117 13.3779 8.81497 13.2248 8.30142 12.9186C7.78786 12.6124 7.37957 12.2025 7.07654 11.689C6.77351 11.1754 6.62199 10.6092 6.62199 9.9904C6.62199 9.37159 6.7751 8.8086 7.08132 8.30142C7.38754 7.79424 7.79583 7.38754 8.3062 7.08132C8.81657 6.7751 9.38117 6.62199 10 6.62199C10.6188 6.62199 11.185 6.7751 11.6986 7.08132C12.2121 7.38754 12.6204 7.79424 12.9234 8.30142C13.2264 8.8086 13.3779 9.37159 13.3779 9.9904C13.3779 10.6092 13.2264 11.1754 12.9234 11.689C12.6204 12.2025 12.2121 12.6124 11.6986 12.9186C11.185 13.2248 10.6188 13.3779 10 13.3779Z" fill="#537975" fill-opacity="0.5"/>
</svg>
